<svg id="Layer_1" data-name="Layer 1" xmlns="http://www.w3.org/2000/svg" xmlns:xlink="http://www.w3.org/1999/xlink" viewBox="0 0 262.48 214.75"><defs><style>.cls-1{fill:url(#linear-gradient);}.cls-2{fill:#313133;}</style><linearGradient id="linear-gradient" x1="2.57" y1="791.21" x2="2.57" y2="790.21" gradientTransform="matrix(162.74, 0, 0, -160.35, -111.87, 127187.33)" gradientUnits="userSpaceOnUse"><stop offset="0" stop-color="#6bb44f"/><stop offset="1" stop-color="#228952"/></linearGradient></defs><g id="Group_2" data-name="Group 2"><path id="Path_2" data-name="Path 2" class="cls-1" d="M246.47,398.92V443.3l59.66,32.57,59.65-32.57V398.92l-59.65,32.57Zm-21.71-39,81.37,44.39L387.5,359.9l-81.37-44.38Z" transform="translate(-174.89 -288.32)"/><path id="Path_3" data-name="Path 3" class="cls-2" d="M306.13,288.32,174.89,359.9l47.72,26V457.5l83.52,45.57,83.52-45.57V385.91l23.86-13v82.44h23.86V359.9Zm59.65,155-59.65,32.57L246.47,443.3V398.92l59.66,32.57,59.65-32.57Zm-59.65-39L224.76,359.9l81.37-44.38L387.5,359.9Z" transform="translate(-174.89 -288.32)"/></g><g id="Group_2-2" data-name="Group 2"><path id="Path_2-2" data-name="Path 2" class="cls-1" d="M246.47,398.92V443.3l59.66,32.57,59.65-32.57V398.92l-59.65,32.57Zm-21.71-39,81.37,44.39L387.5,359.9l-81.37-44.38Z" transform="translate(-174.89 -288.32)"/><path id="Path_3-2" data-name="Path 3" class="cls-2" d="M306.13,288.32,174.89,359.9l47.72,26V457.5l83.52,45.57,83.52-45.57V385.91l23.86-13v82.44h23.86V359.9Zm59.65,155-59.65,32.57L246.47,443.3V398.92l59.66,32.57,59.65-32.57Zm-59.65-39L224.76,359.9l81.37-44.38L387.5,359.9Z" transform="translate(-174.89 -288.32)"/></g></svg>